<svg width="390" height="513" viewBox="0 0 390 513" fill="none" xmlns="http://www.w3.org/2000/svg">
<path d="M379.166 283.658H9.66602L40.666 487.658L68.166 505.158H327.666L348.666 490.158L379.166 283.658Z" fill="#8470FF" stroke="black"/>
<path d="M46.666 257.658C34.666 257.158 22.666 267.158 23.166 279.658C25.9993 285.992 34.166 298.858 44.166 299.658C51.8327 293.825 70.166 281.958 82.166 281.158C97.166 280.158 109.166 299.658 119.666 299.658C130.166 299.658 141.166 282.658 155.166 282.158C169.166 281.658 178.166 299.658 194.166 299.658C210.166 299.658 212.166 282.158 231.166 282.158C238.499 287.658 256.666 298.858 270.666 299.658C272.166 300.158 293.666 281.658 309.666 282.158C315.166 282.658 331.166 294.158 351.666 296.658C372.166 299.158 358.666 255.658 339.666 255.658C245.999 256.492 56.266 258.058 46.666 257.658Z" fill="#6D4930"/>
<path d="M288.166 195.158C295.666 201.658 294.666 245.658 281.166 257.658L326.666 256.158C357.166 226.658 326.666 183.158 308.666 178.158C308.666 179.658 297.666 190.158 288.166 195.158Z" fill="#5C87F7"/>
<path d="M244.501 209.778C267.862 204.778 284.076 197.682 289.086 194.658C298.604 200.706 306.118 246.066 282.072 257.658L225.966 257.154H67.166C67.166 242.538 85.2002 230.946 105.238 225.906C122.462 221.574 220.957 214.818 244.501 209.778Z" fill="#71A1FF"/>
<path d="M114.306 168.899C34.126 193.984 43.2029 228.601 51.2713 245.658C61.8428 232.614 96.1339 214.052 128.426 211.041C174.315 209.035 292.747 200.724 304.922 164.384C314.504 135.787 302.401 110.201 274.666 97.6584C260.042 118.228 216.188 143.313 199.043 149.333C192.645 151.579 139.52 164.886 114.306 168.899Z" fill="#E6D2FF"/>
<path d="M259.166 115.158C284.608 168.584 251.983 182.85 208.166 200.658C265.647 197.289 306.166 177.658 306.166 145.308C306.166 117.392 286.829 103.897 273.166 97.1584L259.166 115.158Z" fill="#CFB9FF"/>
<path d="M168.166 85.6585C56.6659 99.6585 71.1661 151.658 82.6661 176.658C107.166 171.159 243.666 151.658 265.166 85.6584C276.481 50.9232 258.666 9.15845 229.666 14.6585C227.166 32.6585 211.166 84.1585 168.166 85.6585Z" fill="#71A1FF"/>
<path d="M219.166 50.1584C224.166 91.6584 208.166 131.658 166.166 152.658C195.166 144.158 244.166 123.158 264.166 87.6584C279.166 46.1584 251.166 17.1584 229.666 13.6584C230.666 18.6584 226.166 38.6584 219.166 50.1584Z" fill="#5C87F7"/>
<path d="M166.166 45.1584C166.166 50.6584 169.666 61.1584 184.666 66.6584C196.666 52.6584 193.166 30.1584 183.666 24.1583C171.666 25.6584 166.166 39.6584 166.166 45.1584Z" fill="#E55045"/>
<path d="M183.166 23.6584C196.166 38.6584 193.166 54.6584 183.666 67.1584C192.166 62.9917 209.266 52.1584 209.666 42.1584C210.166 29.6584 195.166 21.1584 183.166 23.6584Z" fill="#C43730"/>
<path d="M49.6657 255.658C31.6658 229.658 33.6658 201.158 77.1658 179.158M49.6657 255.658C35.1658 255.658 21.6662 263.658 21.6663 281.158M49.6657 255.658C65.1657 244.158 74.6658 225.658 103.666 220.158C146.666 212.003 203.034 209.927 237.166 204.158C265.254 199.411 294.383 188.903 306.166 169.158M49.6657 255.658L259.166 257.158M270.166 88.6582C308.166 106.658 312.166 127.658 312.166 151.158C311.957 157.63 309.276 163.948 306.166 169.158M270.166 88.6582C238.666 143.158 166.666 160.658 144.666 162.658M270.166 88.6582C284.853 56.6128 266.166 18.5976 238.166 9.15836C230.666 6.15841 223.666 9.15839 222.666 16.1583C221.21 39.4516 208.687 61.8811 187.666 73.5694M77.1658 179.158L109.666 169.658M77.1658 179.158C50.6662 129.158 85.6662 89.6582 160.666 81.6582C170.764 80.8066 179.809 77.9384 187.666 73.5694M21.6663 281.158C21.6663 292.358 36.3328 297.992 43.6662 299.158C64.6662 299.158 60.6662 281.158 81.6662 281.158C106.166 281.158 95.6662 299.158 118.666 299.158C141.666 299.158 134.666 281.158 156.666 281.158C178.666 281.158 172.166 298.658 193.666 298.658C215.166 298.658 214.166 281.658 232.166 281.658C250.166 281.658 252.666 299.158 269.666 299.158C286.666 299.158 291.166 281.658 307.166 281.658C324.666 281.658 327.666 299.158 344.166 298.658C358.024 298.238 367.059 289.017 368.077 281.658M21.6663 281.158C8.66615 281.158 6.66588 283.158 8.66604 297.158L37.666 478.158C40.166 489.658 52.166 502.658 66.666 504.158C69.4002 504.441 78.0063 504.624 90.666 504.732M213.666 45.6584C215.166 22.1584 185.166 11.1584 170.166 24.1584C145.58 45.4663 166.166 72.1584 187.666 73.5694M306.166 169.158C324.166 172.658 368.166 222.158 331.666 257.158M331.666 257.158H292.666M331.666 257.158C358.666 255.158 368.666 267.658 368.166 280.658C368.154 280.987 368.124 281.321 368.077 281.658M368.077 281.658C376.166 280.658 384.166 280.658 380.666 297.158C370.166 355.825 354.309 466.585 352.166 475.158C348.666 489.158 334.666 504.092 318.666 504.158C312.279 504.185 305.409 504.216 298.166 504.25M74.166 323.158L90.666 504.732M90.666 504.732C104.029 504.846 121.908 504.877 142.166 504.857M142.166 504.857L134.666 326.658M142.166 504.857C158.494 504.84 176.368 504.79 194.666 504.722M194.666 504.722V326.158M194.666 504.722C212.103 504.658 229.926 504.578 247.166 504.496M247.166 504.496L254.666 326.158M247.166 504.496C265.169 504.411 282.537 504.323 298.166 504.25M298.166 504.25L314.666 326.158" stroke="black" stroke-width="15" stroke-linecap="round" stroke-linejoin="round"/>
</svg>
